<svg width="24" height="24" viewBox="0 0 24 24" fill="none" xmlns="http://www.w3.org/2000/svg">
<path d="M13.904 23.375H6.1C3.96 23.375 3.85 23.342 3.804 23.327C3.658 23.283 3.502 23.1619 3.412 23.0719C3.308 22.9669 3.152 22.715 3.129 22.54C3.114 22.433 3.112 21.1439 3.112 20.3849V7.38695C3.112 5.24895 3.145 5.13895 3.159 5.09195C3.202 4.94795 3.321 4.79095 3.411 4.69995C3.515 4.59495 3.77 4.43595 3.948 4.41395C4.072 4.39895 5.763 4.39795 6.1 4.39795H8.591C10.783 4.39795 10.867 4.44895 10.965 4.50695C11.003 4.52995 11.089 4.58295 12.54 6.03195L15.259 8.75095C16.706 10.1959 16.765 10.2939 16.784 10.3259C16.812 10.3719 16.838 10.4149 16.857 10.6829C16.88 10.7339 16.893 10.7889 16.893 10.8479C16.893 10.8919 16.886 10.9349 16.873 10.9739C16.886 11.3139 16.893 11.8469 16.893 12.6979V20.384C16.893 22.527 16.861 22.6309 16.846 22.6819C16.802 22.8269 16.682 22.9829 16.592 23.0729C16.489 23.1759 16.238 23.3329 16.062 23.3569C15.947 23.3729 14.515 23.375 13.904 23.375ZM4.264 22.5669C4.578 22.5669 5.24 22.5739 6.1 22.5739H13.904C14.951 22.5739 15.857 22.57 15.973 22.562C15.962 22.57 16.008 22.5219 16.031 22.5019C16.055 22.4779 16.083 22.437 16.091 22.423C16.08 22.391 16.093 21.489 16.093 20.384V12.6979C16.093 12.1089 16.087 11.6109 16.078 11.2489H12.437C11.114 11.2489 10.037 10.1719 10.037 8.84895V5.21395C9.674 5.20495 9.177 5.19895 8.59 5.19895H6.1C5.049 5.19895 4.14 5.20395 4.028 5.20995C4.048 5.21095 3.996 5.24895 3.974 5.26895C3.951 5.29195 3.922 5.33395 3.915 5.34795C3.927 5.36795 3.912 6.18195 3.912 7.38695V20.3849C3.912 21.4309 3.917 22.3369 3.924 22.4529C3.922 22.4179 3.966 22.491 3.985 22.514C4.008 22.536 4.048 22.5649 4.062 22.5719C4.067 22.5679 4.137 22.5669 4.264 22.5669ZM10.838 5.47595V8.84995C10.838 9.73195 11.556 10.4499 12.438 10.4499H15.813C15.563 10.1929 15.176 9.80095 14.693 9.31895L11.975 6.59995C11.499 6.12395 11.1 5.72995 10.838 5.47595Z" fill="#CECECE"/>
<path d="M19.241 19.602H18.582C18.361 19.602 18.182 19.422 18.182 19.202C18.182 18.982 18.361 18.802 18.582 18.802H19.241C19.569 18.802 19.881 18.798 19.957 18.791C19.963 18.786 20.004 18.749 20.026 18.73C20.05 18.706 20.079 18.664 20.086 18.65C20.075 18.619 20.088 17.717 20.088 16.612V8.92602C20.088 8.32302 20.085 7.82902 20.081 7.47702H16.433C15.11 7.47702 14.033 6.40002 14.033 5.07702V1.44002C13.67 1.43102 13.173 1.42502 12.586 1.42502H10.095C9.044 1.42502 8.13499 1.43002 8.02399 1.43602C8.02999 1.43902 7.99299 1.47602 7.96999 1.49402C7.94599 1.51802 7.91699 1.56002 7.90999 1.57402C7.91499 1.60702 7.90699 1.96302 7.90699 2.27202V2.93102C7.90699 3.15202 7.72799 3.33102 7.50699 3.33102C7.28599 3.33102 7.10699 3.15102 7.10699 2.93102V2.27202C7.10699 1.97402 7.11299 1.45502 7.15399 1.31802C7.19699 1.17302 7.31799 1.01602 7.40699 0.925023C7.50999 0.821023 7.76399 0.661023 7.94399 0.640023C8.06599 0.625023 9.757 0.624023 10.095 0.624023H12.586C14.778 0.624023 14.862 0.675023 14.96 0.733023C14.997 0.755023 15.084 0.808023 16.535 2.25802L19.254 4.97702C20.804 6.52702 20.828 6.62302 20.854 6.73402C20.858 6.75102 20.865 6.77902 20.872 6.95802C20.883 6.99502 20.889 7.03402 20.889 7.07502C20.889 7.10802 20.885 7.14002 20.878 7.17102C20.884 7.47702 20.889 8.00402 20.889 8.92502V16.611C20.889 18.754 20.857 18.858 20.842 18.909C20.798 19.054 20.677 19.21 20.588 19.3C20.485 19.403 20.234 19.56 20.059 19.584C19.997 19.592 19.629 19.602 19.241 19.602ZM14.833 1.70202V5.07602C14.833 5.95802 15.551 6.67602 16.433 6.67602H19.794C19.54 6.40802 19.157 6.01402 18.688 5.54502L15.969 2.82602C15.494 2.35102 15.095 1.95702 14.833 1.70202Z" fill="#CECECE"/>
</svg>
