<svg width="94" height="94" viewBox="0 0 94 94" fill="none" xmlns="http://www.w3.org/2000/svg">
<path d="M46.875 92.1875C71.9004 92.1875 92.1875 71.9004 92.1875 46.875C92.1875 21.8496 71.9004 1.5625 46.875 1.5625C21.8496 1.5625 1.5625 21.8496 1.5625 46.875C1.5625 71.9004 21.8496 92.1875 46.875 92.1875Z" fill="#42A5F5"/>
<path d="M46.875 13.0312L26.5625 46.875L46.875 80.7187L67.1875 46.875L46.875 13.0312Z" fill="#E3F2FD"/>
<path d="M46.875 56.9062L26.5625 46.875L46.875 80.7187L67.1875 46.875L46.875 56.9062Z" fill="#BBDEFB"/>
<path d="M46.875 82.2813C46.5937 82.2813 46.3125 82.2188 46.0625 82.0625C45.3125 81.625 45.0937 80.6563 45.5312 79.9063L65.375 46.875L46.875 16.0625L27.9062 47.6875C27.4687 48.4375 26.5 48.6563 25.75 48.2188C25 47.7813 24.7812 46.8125 25.2187 46.0625L45.5312 12.2188C46.0937 11.2812 47.6562 11.2812 48.2187 12.2188L68.5312 46.0625C68.8125 46.5625 68.8125 47.1875 68.5312 47.6563L48.2187 81.5C47.9062 82.0313 47.4062 82.2813 46.875 82.2813Z" fill="#171717"/>
<path d="M46.875 82.2812C46.3437 82.2812 45.8437 82 45.5312 81.5312L25.2187 47.6875C24.7812 46.9375 25 46 25.75 45.5312C26.4687 45.0937 27.4375 45.3125 27.9062 46.0625L48.2187 79.9062C48.6562 80.6562 48.4375 81.5937 47.6875 82.0625C47.4375 82.2187 47.1562 82.2812 46.875 82.2812Z" fill="#171717"/>
<path d="M67.1875 48.4375C66.9375 48.4375 66.7187 48.375 66.5 48.2812L52.4062 41.2187C51.625 40.8437 51.3125 39.9062 51.7187 39.125C52.0937 38.3437 53.0312 38.0312 53.8125 38.4375L67.9062 45.5C68.6875 45.875 69 46.8125 68.5937 47.5937C68.3125 48.125 67.75 48.4375 67.1875 48.4375Z" fill="#171717"/>
<path d="M26.5625 48.4375C26 48.4375 25.4375 48.125 25.1562 47.5625C24.7812 46.7812 25.0937 45.8437 25.8437 45.4687L39.9375 38.4062C40.7187 38.0312 41.6562 38.3437 42.0312 39.0937C42.4062 39.875 42.0937 40.8125 41.3437 41.1875L27.25 48.25C27.0312 48.375 26.8125 48.4375 26.5625 48.4375Z" fill="#171717"/>
<path d="M46.875 82.2813C46.3125 82.2813 45.8125 82 45.5313 81.5313L25.2188 47.6875C24.875 47.0938 24.9375 46.3438 25.4063 45.8125C25.875 45.3125 26.625 45.1563 27.25 45.4688L46.875 55.2813L66.5 45.4688C67.125 45.1563 67.875 45.2813 68.3438 45.8125C68.8125 46.3125 68.9063 47.0938 68.5313 47.6875L48.2188 81.5313C47.9375 82 47.4375 82.2813 46.875 82.2813ZM30.6563 50.6563L46.875 77.6875L63.0938 50.6563L47.5938 58.4063C47.1563 58.625 46.625 58.625 46.1875 58.4063L30.6563 50.6563Z" fill="#171717"/>
<path d="M46.875 57.4063C46 57.4063 45.3125 56.7188 45.3125 55.8438V25C45.3125 24.125 46 23.4375 46.875 23.4375C47.75 23.4375 48.4375 24.125 48.4375 25V55.8438C48.4375 56.7188 47.75 57.4063 46.875 57.4063Z" fill="#171717"/>
<path d="M46.875 82.2813C46.3125 82.2813 45.8125 82 45.5313 81.5313L25.2188 47.6875C24.9375 47.1875 24.9375 46.5625 25.2188 46.0938L45.5313 12.25C46.0938 11.3125 47.6563 11.3125 48.2188 12.25L68.5313 46.0938C68.8125 46.5938 68.8125 47.2188 68.5313 47.6875L48.2188 81.5313C47.9375 82 47.4375 82.2813 46.875 82.2813ZM28.375 46.875L46.875 77.6875L65.375 46.875L46.875 16.0625L28.375 46.875Z" fill="#171717"/>
<path d="M46.875 93.75C21.0312 93.75 0 72.7188 0 46.875C0 21.0312 21.0312 0 46.875 0C72.7188 0 93.75 21.0312 93.75 46.875C93.75 72.7188 72.7188 93.75 46.875 93.75ZM46.875 3.125C22.75 3.125 3.125 22.75 3.125 46.875C3.125 71 22.75 90.625 46.875 90.625C71 90.625 90.625 71 90.625 46.875C90.625 22.75 71 3.125 46.875 3.125Z" fill="#171717"/>
</svg>
